<svg xmlns="http://www.w3.org/2000/svg" viewBox="0 0 100 100" width="100" height="100">
  <!-- Cérebro estilizado -->
  <path d="M50,20 C30,20 20,35 20,50 C20,65 30,80 50,80 C70,80 80,65 80,50 C80,35 70,20 50,20 Z" fill="none" stroke="#1d1d1f" stroke-width="2"/>
  
  <!-- Conexões neurais -->
  <path d="M30,40 Q40,30 50,40 Q60,50 70,40" fill="none" stroke="#1d1d1f" stroke-width="2"/>
  <path d="M30,60 Q40,70 50,60 Q60,50 70,60" fill="none" stroke="#1d1d1f" stroke-width="2"/>
  
  <!-- Nós neurais -->
  <circle cx="30" cy="40" r="3" fill="#27ceff"/>
  <circle cx="50" cy="40" r="3" fill="#ff25c6"/>
  <circle cx="70" cy="40" r="3" fill="#f4103e"/>
  <circle cx="30" cy="60" r="3" fill="#f4103e"/>
  <circle cx="50" cy="60" r="3" fill="#27ceff"/>
  <circle cx="70" cy="60" r="3" fill="#ff25c6"/>
  
  <!-- Símbolo de Apple -->
  <path d="M50,30 C52,25 58,25 60,30 C65,30 70,35 70,45 C70,55 65,65 60,70 C55,75 45,75 40,70 C35,65 30,55 30,45 C30,35 35,30 40,30 C42,25 48,25 50,30 Z" fill="none" stroke="#1d1d1f" stroke-width="2"/>
</svg> 