<svg xmlns="http://www.w3.org/2000/svg" viewBox="0 0 100 100" width="100" height="100">
  <!-- Video app -->
  <rect x="20" y="20" width="20" height="20" rx="4" ry="4" fill="#34C759"/>
  <rect x="25" y="25" width="10" height="10" rx="2" ry="2" fill="white"/>
  
  <!-- Photos app -->
  <rect x="45" y="20" width="20" height="20" rx="4" ry="4" fill="#007AFF"/>
  <circle cx="55" cy="30" r="5" fill="white"/>
  
  <!-- Safari app -->
  <rect x="70" y="20" width="20" height="20" rx="4" ry="4" fill="#5AC8FA"/>
  <circle cx="80" cy="30" r="7" fill="white"/>
  <path d="M80,23 L80,37" stroke="#5AC8FA" stroke-width="1"/>
  <path d="M73,30 L87,30" stroke="#5AC8FA" stroke-width="1"/>
  
  <!-- Notes app -->
  <rect x="20" y="45" width="20" height="20" rx="4" ry="4" fill="#FF9500"/>
  <line x1="25" y1="50" x2="35" y2="50" stroke="white" stroke-width="1"/>
  <line x1="25" y1="55" x2="35" y2="55" stroke="white" stroke-width="1"/>
  <line x1="25" y1="60" x2="35" y2="60" stroke="white" stroke-width="1"/>
  
  <!-- Charts app -->
  <rect x="45" y="45" width="20" height="20" rx="4" ry="4" fill="#FF2D55"/>
  <rect x="50" y="55" width="3" height="5" fill="white"/>
  <rect x="55" y="50" width="3" height="10" fill="white"/>
  <rect x="60" y="53" width="3" height="7" fill="white"/>
  
  <!-- Numbers app -->
  <rect x="70" y="45" width="20" height="20" rx="4" ry="4" fill="#5856D6"/>
  <rect x="75" y="50" width="10" height="10" rx="1" ry="1" fill="white"/>
</svg> 