<svg xmlns="http://www.w3.org/2000/svg" viewBox="0 0 100 100" width="100" height="100">
  <!-- MacBook -->
  <rect x="15" y="30" width="70" height="45" rx="3" ry="3" fill="#f5f5f7"/>
  <rect x="10" y="75" width="80" height="5" rx="2" ry="2" fill="#d1d1d6"/>
  
  <!-- Screen -->
  <rect x="20" y="35" width="60" height="35" fill="#1d1d1f"/>
  
  <!-- Stickers -->
  <circle cx="35" cy="45" r="5" fill="#FFCC00"/>
  <text x="33" y="48" font-family="Arial" font-size="8" fill="#1d1d1f">👀</text>
  
  <path d="M55,40 C55,38 50,38 50,40 C50,42 55,42 55,40 Z" fill="#FF2D55"/>
  <path d="M55,40 C55,38 60,38 60,40 C60,42 55,42 55,40 Z" fill="#FF2D55"/>
  <path d="M50,45 C50,50 60,50 60,45 Z" fill="#FF2D55"/>
  
  <rect x="70" y="50" width="10" height="5" rx="1" ry="1" fill="#5AC8FA"/>
  <rect x="70" y="55" width="10" height="5" rx="1" ry="1" fill="#FF9500"/>
  <rect x="70" y="60" width="10" height="5" rx="1" ry="1" fill="#FF3B30"/>
</svg> 