<svg xmlns="http://www.w3.org/2000/svg" viewBox="0 0 100 100" width="100" height="100">
  <!-- Hands -->
  <path d="M30,50 C25,45 25,40 30,35 C35,30 40,30 45,35 C50,40 50,45 45,50 Z" fill="#FFCC00"/>
  <path d="M30,50 C25,55 25,60 30,65 C35,70 40,70 45,65 C50,60 50,55 45,50 Z" fill="#FFCC00"/>
  
  <path d="M70,50 C65,45 65,40 70,35 C75,30 80,30 85,35 C90,40 90,45 85,50 Z" fill="#FFCC00"/>
  <path d="M70,50 C65,55 65,60 70,65 C75,70 80,70 85,65 C90,60 90,55 85,50 Z" fill="#FFCC00"/>
  
  <!-- "that" text -->
  <rect x="50" y="40" width="20" height="20" rx="2" ry="2" fill="#34C759"/>
  <text x="53" y="55" font-family="Arial" font-weight="bold" font-size="12" fill="white">that</text>
</svg> 